<?xml version="1.0" encoding="UTF-8"?>
<!DOCTYPE svg PUBLIC "-//W3C//DTD SVG 1.1//EN" "http://www.w3.org/Graphics/SVG/1.1/DTD/svg11.dtd">
<svg xmlns="http://www.w3.org/2000/svg" xml:space="preserve" width="380px" height="100px" version="1.1" style="shape-rendering:geometricPrecision; text-rendering:geometricPrecision; image-rendering:optimizeQuality; fill-rule:evenodd; clip-rule:evenodd"
viewBox="0 0 380 100"
 xmlns:xlink="http://www.w3.org/1999/xlink">
 <defs>
  <style type="text/css">
   <![CDATA[
    .fil0 {fill:#777;fill-rule:nonzero}
   ]]>
  </style>
 </defs>
 <g id="Layer_x0020_1">
  <g>
   <path class="fil0" d="M42.55 6.35c9.49,-0.14 18.99,-0.03 28.49,-0.06 34.42,-0.1 34.6,45.45 19.89,61.17 -5.02,5.43 -12.7,7.4 -19.86,7.62 -9.51,-0.02 -19.01,0.08 -28.52,-0.05 0,-22.9 0,-45.79 0,-68.68l0 0zm190.83 32.34c7.22,-20.18 45.55,-21.63 44.55,13.43 -12.47,0.09 -24.94,-0.02 -37.41,0.06 2.66,20.86 23.54,17.26 28,7.64 3.05,-0.01 6.12,0.21 9.12,0.83 -5.87,20.81 -37.36,19.76 -44.18,1.84 -2.85,-7.58 -2.74,-16.18 -0.08,-23.8l0 0zm-123.08 0.01c7.23,-20.21 45.55,-21.63 44.55,13.42 -12.47,0.09 -24.93,-0.02 -37.4,0.06 2.57,20.7 23.47,17.39 27.99,7.64 3.06,-0.01 6.13,0.21 9.12,0.83 -5.72,20.69 -37.32,19.86 -44.18,1.84 -2.85,-7.58 -2.73,-16.18 -0.08,-23.79l0 0zm-81.37 -33.57c2.53,-0.22 5.52,-0.43 7.28,1.78 -6.81,4.15 -36.2,6.04 -21.69,12.4 6.8,2.62 14.18,3.06 21.3,4.33 0.1,4.17 0.16,8.37 -0.47,12.51 -5.94,1.68 -28.42,-1.84 -29.71,-11.13 -2.14,-15.48 8.16,-18.26 23.29,-19.89zm261.62 61.56c3.33,-0.01 6.67,-0.05 10.01,0.05 0,2.76 0,5.52 0,8.29 -3.34,0.09 -6.68,0.06 -10.01,0.04 0.01,-2.79 0.01,-5.59 0,-8.38zm-284.89 -15.5c12.66,8.3 26.95,7.83 29.59,9.48 0.95,4.34 0.52,8.83 0.62,13.24 -10.11,-1.12 -21.06,-2 -29.47,-8.32 -1,-4.71 -1.53,-9.61 -0.74,-14.4zm0 -18.35c8.49,5.45 18.59,7.69 28.49,8.88 2.5,0.26 1.68,10.43 1.72,13.84 -10.11,-1.11 -21.06,-1.99 -29.47,-8.31 -1,-4.71 -1.53,-9.62 -0.74,-14.41zm308.95 -7.41c3.06,-0.04 6.12,-0.05 9.17,0 -0.04,16.55 -0.01,33.1 -0.01,49.66 -0.02,7.76 0.03,19.09 -10.36,19.81 -3.1,0.2 -6.27,0.18 -9.24,-0.81 0.29,-2.78 0.99,-5.49 1.53,-8.22 3.99,0.37 8.63,2.74 8.89,-6.16 0.05,-18.09 -0.01,-36.19 0.02,-54.28zm-101.78 -0.02c3.02,-0.02 6.04,-0.02 9.07,0.02 0.01,16.54 0.01,33.08 0,49.63 -3.03,0.03 -6.05,0.03 -9.07,0.02 -0.01,-16.56 -0.01,-33.12 0,-49.67zm-52.45 0.05c3.67,0.17 7.68,-0.64 11.15,0.35 3.64,5.39 7.35,10.76 10.74,16.31 4.11,-5.47 7.91,-11.16 11.95,-16.68 3.56,-0.07 7.12,-0.08 10.67,0.01 -5.57,7.94 -11.2,15.82 -16.81,23.74 5.94,8.7 12.1,17.26 18.14,25.89 -3.64,-0.22 -7.46,0.47 -10.99,-0.33 -4.17,-6.02 -8.19,-12.13 -12.22,-18.25 -4.98,5.78 -8.58,12.72 -13.48,18.53 -3.53,0.16 -7.06,0.03 -10.58,0.03 6.06,-8.63 12.28,-17.14 18.26,-25.81 -5.66,-7.89 -11.24,-15.84 -16.83,-23.79zm179.89 2.41c7.32,-4.79 20.84,-4.48 27.62,1.12 2.99,2.52 4.2,6.48 4.84,10.21 -2.85,0.42 -5.72,0.71 -8.6,0.69 -2.92,-8.07 -11.73,-7.82 -17.6,-5.77 -3.74,1.3 -6.74,6.64 2.25,8.77 9.19,2.17 22.42,4.07 25.18,12.66 3.54,10.96 -5.66,20.32 -19.31,20.32 -11.81,0.01 -19.4,-3.63 -21.84,-16.06 2.89,-0.48 5.81,-0.75 8.74,-0.78 3.82,13.15 24.43,9.02 24.01,1.61 -0.45,-7.88 -25.69,-3.64 -30.53,-17.1 -2.12,-5.62 0.27,-12.39 5.24,-15.67zm-94.04 7.63c-2.92,1.76 -4.76,4.86 -5.24,8.19 9.21,0.09 18.43,0.08 27.64,0.01 -0.63,-2.49 -1.25,-5.22 -3.33,-6.94 -5.15,-4.57 -13.3,-4.73 -19.07,-1.26zm-123.09 0c-2.9,1.77 -4.74,4.86 -5.23,8.19 9.22,0.09 18.44,0.08 27.65,0.01 -0.64,-2.49 -1.25,-5.22 -3.34,-6.94 -5.15,-4.57 -13.3,-4.73 -19.08,-1.26zm191.47 -29.18c3.06,-0.04 6.11,-0.05 9.17,0 -0.02,2.78 -0.02,5.56 0,8.34 -3.06,0.05 -6.11,0.04 -9.17,0 0,-2.78 0,-5.56 0,-8.34zm-101.77 -0.03c3.01,-0.01 6.03,-0.01 9.06,0.02 0.01,2.79 0.01,5.57 0,8.36 -3.03,0.03 -6.05,0.03 -9.07,0.02 -0.01,-2.8 -0.01,-5.6 0.01,-8.4zm-160.55 8.44c0.04,17.3 0.04,34.61 0,51.92 18.09,0.15 33.15,2.68 37.14,-16.77 2.45,-11.92 0.77,-31.55 -13.28,-34.29 -7.88,-1.42 -15.91,-0.77 -23.86,-0.86z"/>
  </g>
 </g>
</svg>
