<?xml version="1.0" encoding="UTF-8"?>
<!DOCTYPE svg PUBLIC "-//W3C//DTD SVG 1.1//EN" "http://www.w3.org/Graphics/SVG/1.1/DTD/svg11.dtd">
<svg xmlns="http://www.w3.org/2000/svg" xml:space="preserve" width="90px" height="100px" version="1.1" style="shape-rendering:geometricPrecision; text-rendering:geometricPrecision; image-rendering:optimizeQuality; fill-rule:evenodd; clip-rule:evenodd"
viewBox="0 0 90 100"
 xmlns:xlink="http://www.w3.org/1999/xlink">
 <defs>
  <style type="text/css">
   <![CDATA[
    .fil0 {fill:white;fill-rule:nonzero}
   ]]>
  </style>
 </defs>
 <g id="Layer_x0020_1">
  <g id="_896629072">
   <g>
    <g>
     <path class="fil0" d="M75.15 5l-60.3 0c-5.09,0 -9.23,4.14 -9.23,9.27l0 60.84c0,5.13 4.14,9.27 9.23,9.27l51.03 0 -2.39 -8.32 5.76 5.35 5.45 5.04 9.68 8.55 0 -80.73c0,-5.13 -4.14,-9.27 -9.23,-9.27zm-17.37 58.77c0,0 -1.62,-1.93 -2.97,-3.64 5.89,-1.67 8.14,-5.36 8.14,-5.36 -1.84,1.22 -3.6,2.07 -5.17,2.66 -2.25,0.94 -4.41,1.57 -6.53,1.93 -4.32,0.81 -8.28,0.59 -11.65,-0.04 -2.57,-0.5 -4.77,-1.22 -6.62,-1.94 -1.03,-0.4 -2.16,-0.9 -3.28,-1.53 -0.14,-0.09 -0.27,-0.13 -0.41,-0.22 -0.09,-0.05 -0.13,-0.09 -0.18,-0.14 -0.81,-0.45 -1.26,-0.76 -1.26,-0.76 0,0 2.16,3.6 7.88,5.31 -1.35,1.71 -3.02,3.73 -3.02,3.73 -9.94,-0.31 -13.72,-6.84 -13.72,-6.84 0,-14.49 6.48,-26.23 6.48,-26.23 6.48,-4.86 12.64,-4.73 12.64,-4.73l0.45 0.54c-8.1,2.34 -11.83,5.9 -11.83,5.9 0,0 0.99,-0.54 2.65,-1.31 4.82,-2.11 8.64,-2.7 10.22,-2.83 0.27,-0.05 0.49,-0.09 0.76,-0.09 2.75,-0.36 5.85,-0.45 9.09,-0.09 4.28,0.49 8.87,1.75 13.55,4.32 0,0 -3.56,-3.38 -11.21,-5.72l0.63 -0.72c0,0 6.17,-0.13 12.65,4.73 0,0 6.48,11.74 6.48,26.23 0,0 -3.82,6.53 -13.77,6.84zm-20.93 -21.01c-2.56,0 -4.59,2.25 -4.59,4.99 0,2.75 2.07,5 4.59,5 2.57,0 4.59,-2.25 4.59,-5 0.05,-2.74 -2.02,-4.99 -4.59,-4.99l0 0zm16.43 0c-2.57,0 -4.59,2.25 -4.59,4.99 0,2.75 2.07,5 4.59,5 2.56,0 4.59,-2.25 4.59,-5 0,-2.74 -2.03,-4.99 -4.59,-4.99z"/>
    </g>
   </g>
  </g>
 </g>
</svg>
