<?xml version="1.0" encoding="UTF-8"?>
<!DOCTYPE svg PUBLIC "-//W3C//DTD SVG 1.1//EN" "http://www.w3.org/Graphics/SVG/1.1/DTD/svg11.dtd">
<svg xmlns="http://www.w3.org/2000/svg" xml:space="preserve" width="303px" height="100px" version="1.1" style="shape-rendering:geometricPrecision; text-rendering:geometricPrecision; image-rendering:optimizeQuality; fill-rule:evenodd; clip-rule:evenodd"
viewBox="0 0 303 100"
 xmlns:xlink="http://www.w3.org/1999/xlink">
 <defs>
  <style type="text/css">
   <![CDATA[
    .str0 {stroke:black;stroke-width:0.9;stroke-miterlimit:2.61313}
    .fil0 {fill:black}
    .fil1 {fill:white;fill-rule:nonzero}
   ]]>
  </style>
 </defs>
 <g id="Layer_x0020_1">
  <rect class="fil0 str0" width="303" height="100"/>
  <g>
   <path class="fil1" d="M61.65 26.64c5.72,-1.93 12.45,1.4 14.49,7.05 1.79,4.49 0.38,9.94 -3.29,13.07 -3.53,3.18 -9.06,3.81 -13.23,1.53 -4.22,-2.18 -6.87,-7.08 -6.22,-11.8 0.49,-4.53 3.88,-8.58 8.25,-9.85l0 0zm159.03 41.06c4.41,-11.81 8.84,-23.6 13.25,-35.4 2.49,0 4.98,0 7.47,0 4.56,11.8 9.1,23.6 13.66,35.4 -2.68,0 -5.36,0 -8.03,0 -0.8,-2.29 -1.6,-4.58 -2.41,-6.88 -4.61,0.01 -9.22,0 -13.84,0.01 -0.77,2.29 -1.56,4.58 -2.34,6.87 -2.59,0 -5.17,0 -7.76,0l0 0zm-178.37 -64.09c12.03,-2.03 24.76,1.1 34.66,8.18 8.25,5.88 14.43,14.53 17.49,24.18 3.37,10.68 2.76,22.61 -1.8,32.85 -3.5,7.92 -9.16,14.9 -16.3,19.81 -9.38,6.49 -21.16,9.48 -32.48,8 -10.59,-1.26 -20.68,-6.3 -28.06,-14 -5.37,-5.53 -9.32,-12.42 -11.45,-19.82 6,2.47 11.99,4.95 17.99,7.44 0.8,3.26 2.66,6.31 5.45,8.23 4.08,2.92 9.87,3.29 14.19,0.68 4.35,-2.33 6.94,-7.27 6.77,-12.16 5.3,-3.77 10.53,-7.69 15.95,-11.28 5.98,-0.07 11.94,-3 15.19,-8.11 4.46,-6.5 3.69,-15.94 -1.73,-21.67 -5.21,-5.9 -14.51,-7.51 -21.39,-3.69 -5.83,3.01 -9.41,9.39 -9.49,15.88 -3.57,5.47 -7.43,10.76 -11.08,16.19 -2.91,-0.04 -5.81,0.69 -8.25,2.3 -8.41,-3.41 -16.78,-6.94 -25.18,-10.36 0.71,-10.11 4.99,-19.87 11.69,-27.45 7.17,-8.04 17.13,-13.63 27.83,-15.2zm-10.44 54.64c3.1,-1.01 6.67,-0.72 9.33,1.24 3.77,2.58 5.33,7.93 3.37,12.1 -1.71,4.11 -6.46,6.64 -10.83,5.84 -3.18,-0.48 -5.84,-2.71 -7.35,-5.48 3.5,1.08 6.92,3.78 10.75,2.62 4.26,-1.14 6.61,-6.46 4.46,-10.35 -1.83,-3.73 -6.37,-4.25 -9.73,-5.97zm230.73 -25.95c2.36,0 4.72,0 7.08,0 3.98,8.51 7.93,17.04 11.92,25.55 3.81,-8.52 7.64,-17.04 11.46,-25.55 2.38,0 4.76,0 7.15,0 0,11.8 0,23.6 0,35.4 -2.37,0 -4.73,0 -7.1,0 -0.05,-7.23 0.11,-14.46 -0.08,-21.69 -3.09,6.95 -6.43,13.77 -9.61,20.68 -1.4,0 -2.79,0 -4.18,0 -3.19,-6.84 -6.35,-13.69 -9.54,-20.52 0,7.18 0,14.35 0,21.53 -2.37,0 -4.73,0 -7.1,0 0,-11.8 0,-23.6 0,-35.4zm-24.97 8.45c-1.61,4.74 -3.23,9.47 -4.86,14.21 3.28,0 6.54,0 9.81,0 -1.65,-4.74 -3.29,-9.48 -4.95,-14.21zm-47.25 -8.45c7.96,0 15.92,0 23.88,0 0,2.1 0,4.21 0,6.31 -5.5,0 -10.99,0 -16.49,0 0,2.67 0,5.34 0,8.01 4.73,0 9.47,0 14.2,0 0,2.1 0,4.21 0,6.31 -4.74,0 -9.47,0 -14.2,0 0,2.78 0,5.56 0,8.34 5.5,0 10.99,0 16.49,0 0,2.15 0,4.29 0,6.43 -7.96,0 -15.92,0 -23.88,0 0,-11.8 0,-23.6 0,-35.4zm-37.14 0c9.64,0 19.28,0 28.91,0 0,2.1 0,4.21 0,6.31 -3.58,0 -7.16,0 -10.74,0 0,9.7 0,19.39 0,29.09 -2.48,0 -4.95,0 -7.43,0 0,-9.7 0,-19.39 0,-29.09 -3.58,0 -7.16,0 -10.74,0 0,-2.1 0,-4.21 0,-6.31zm-28.07 2.55c2.15,-1.92 5.04,-2.8 7.86,-3.04 4.78,-0.42 9.79,0.59 13.78,3.34 -1.05,1.84 -2.1,3.69 -3.14,5.54 -3.38,-2.11 -7.62,-3.39 -11.55,-2.21 -2.38,0.66 -3.31,4.24 -1.13,5.68 4.74,3 11.16,3.09 15.02,7.51 3.65,4.7 1.47,12.33 -3.84,14.81 -6.53,3.13 -14.46,1.93 -20.67,-1.43 0.76,-2.04 1.52,-4.08 2.28,-6.12 4.25,1.95 9.29,3.41 13.87,1.77 2.29,-0.73 3.18,-4.17 1.02,-5.55 -4.23,-2.66 -9.71,-2.91 -13.59,-6.23 -4.2,-3.42 -3.96,-10.65 0.09,-14.07zm-62.96 -5.34c-3.98,1.32 -6.61,5.73 -5.81,9.87 0.68,4.39 5.07,7.81 9.51,7.3 4.94,-0.31 8.94,-5.34 7.98,-10.24 -0.72,-5.24 -6.71,-8.84 -11.68,-6.93z"/>
  </g>
 </g>
</svg>
