<?xml version="1.0" encoding="UTF-8"?>
<!DOCTYPE svg PUBLIC "-//W3C//DTD SVG 1.1//EN" "http://www.w3.org/Graphics/SVG/1.1/DTD/svg11.dtd">
<svg xmlns="http://www.w3.org/2000/svg" xml:space="preserve" width="300px" height="180px" version="1.1" style="shape-rendering:geometricPrecision; text-rendering:geometricPrecision; image-rendering:optimizeQuality; fill-rule:evenodd; clip-rule:evenodd"
viewBox="0 0 300 180"
 xmlns:xlink="http://www.w3.org/1999/xlink">
 <defs>
  <style type="text/css">
   <![CDATA[
    .fil0 {fill:white}
   ]]>
  </style>
 </defs>
 <g id="Layer_x0020_1">
  <path class="fil0" d="M6.45 144.44c36.86,-11.86 53.13,-15.77 90.35,-6.06 14.26,3.72 18.21,5.17 27.34,13.74 -9.76,15.18 -7.37,18.77 10.76,18.62 9.36,-0.08 26.1,-0.57 33.97,-4.64 5.77,-2.99 1.01,-12.65 -3.22,-15.97 32.62,-10.87 54.59,-13.92 89.75,-4.6 17.06,4.53 25.03,9.28 36.2,19.38 4.48,-27.89 3.82,-41.99 -30.28,-44.63 -29.92,-2.32 -63.39,4.95 -90.41,17.86 -7.44,3.55 -13.31,6.78 -19.19,10 22.68,15.53 -17.01,18.1 -20.52,11.09 -1.46,-2.93 2.1,-8.25 3.89,-11.24 -21.7,-20.66 -81.93,-39.99 -107.85,-33.07 -15.42,4.12 -19.18,16.23 -20.79,29.52zm133.98 -35.1c-9.3,-15.65 -35.38,-27.26 -37.39,-41.72 -0.34,-2.37 4.14,0.89 10.03,3.22 3.29,1.31 6.68,2.3 10.07,3.29 -14.36,-6.86 -27.99,-16.39 -34.93,-31.32 -6.73,-14.5 -6.19,-21.21 -14.52,-32.39 -0.87,-1.17 -0.79,-1.28 2.64,-1.09 15.31,0.87 43.63,5.11 51.71,20.2 3.27,6.1 5.12,15.8 6.5,22.85l-0.08 -18.9c0.11,-3.58 21.09,23.79 17.72,48.72 -0.99,7.33 -3.6,15.88 -6.21,24.43 -4.61,-25.93 -11.89,-41.79 -29.53,-62.32 -6.66,-7.74 -12.85,-13.02 -19.67,-18.87 20.25,21.32 38.89,42.8 44.44,72.85 0.95,5.2 1.74,11.73 2.51,18.26 -0.85,-2.27 -1.71,-4.54 -3.29,-7.21zm2.03 26.1c-13.34,-27.18 -23.34,-43.85 -53.16,-48.35 24.45,14.97 35.91,26.56 53.16,48.35zm3.61 3.12c5.23,-24.39 13.39,-51.48 35.08,-66.32 10.51,-7.19 19.93,-8.24 31.61,-9.1 -33.83,24.02 -47.33,40.45 -66.69,75.42zm-118.6 -30.08c28.89,-0.39 53.02,6.32 79.92,18.76 15.61,7.22 24.76,13.23 37.64,22.32 26.51,-19.1 53.31,-33.76 85.86,-42.24 20.64,-5.38 34.05,-5.49 54.16,-4.81 -15.17,-15.94 -32.37,-28.74 -56.44,-27.43 -33.31,1.8 -65.37,41.64 -83.3,66.95 -24.3,-27.12 -61.23,-65.92 -101.3,-48.78 -8.45,3.61 -12.35,8.64 -16.54,15.23z"/>
 </g>
</svg>
